<svg width="69" height="69" viewBox="0 0 69 69" fill="none" xmlns="http://www.w3.org/2000/svg">
<path d="M4.04297 14.2852H12.2637V10.2422H0V22.3711H4.04297V14.2852Z" fill="white"/>
<path d="M69 10.2422H56.7363V14.2852H64.957V22.3711H69V10.2422Z" fill="white"/>
<path d="M12.2637 54.7148H4.04297V48.6504H0V58.7578H12.2637V54.7148Z" fill="white"/>
<path d="M56.7363 58.7578H69V48.6504H64.957V54.7148H56.7363V58.7578Z" fill="white"/>
<path d="M8.2207 26.4141H12.2637V50.6719H8.2207V26.4141Z" fill="white"/>
<path d="M24.3926 26.4141H28.4355V50.6719H24.3926V26.4141Z" fill="white"/>
<path d="M40.5645 26.4141H44.6074V50.6719H40.5645V26.4141Z" fill="white"/>
<path d="M56.7363 26.4141H60.7793V50.6719H56.7363V26.4141Z" fill="white"/>
<path d="M16.3066 18.3281H20.3496V42.5859H16.3066V18.3281Z" fill="white"/>
<path d="M32.4785 18.3281H36.5215V42.5859H32.4785V18.3281Z" fill="white"/>
<path d="M48.6504 18.3281H52.6934V42.5859H48.6504V18.3281Z" fill="white"/>
<path d="M8.2207 18.3281H12.2637V22.3711H8.2207V18.3281Z" fill="white"/>
<path d="M24.3926 18.3281H28.4355V22.3711H24.3926V18.3281Z" fill="white"/>
<path d="M16.3066 46.6289H20.3496V50.6719H16.3066V46.6289Z" fill="white"/>
<path d="M32.4785 46.6289H36.5215V50.6719H32.4785V46.6289Z" fill="white"/>
<path d="M48.6504 46.6289H52.6934V50.6719H48.6504V46.6289Z" fill="white"/>
<path d="M40.5645 18.3281H44.6074V22.3711H40.5645V18.3281Z" fill="white"/>
<path d="M56.7363 18.3281H60.7793V22.3711H56.7363V18.3281Z" fill="white"/>
</svg>
