<svg width="50" height="58" viewBox="0 0 50 58" fill="none" xmlns="http://www.w3.org/2000/svg">
<path fill-rule="evenodd" clip-rule="evenodd" d="M50 2.67857V40.1786C50 41.0156 49.6094 41.7746 49.0067 42.2545C48.5379 43.9732 48.5379 48.8728 49.0067 50.5915C49.6094 51.0826 50 51.8415 50 52.6786V54.4643C50 55.9487 48.8058 57.1429 47.3214 57.1429H10.7143C4.79911 57.1429 0 52.3438 0 46.4286V10.7143C0 4.79911 4.79911 0 10.7143 0H47.3214C48.8058 0 50 1.1942 50 2.67857ZM14.9554 14.2857C14.5871 14.2857 14.2857 14.5871 14.2857 14.9554V17.1875C14.2857 17.5558 14.5871 17.8571 14.9554 17.8571H38.6161C38.9844 17.8571 39.2857 17.5558 39.2857 17.1875V14.9554C39.2857 14.5871 38.9844 14.2857 38.6161 14.2857H14.9554ZM14.2857 22.0982C14.2857 21.7299 14.5871 21.4286 14.9554 21.4286H38.6161C38.9844 21.4286 39.2857 21.7299 39.2857 22.0982V24.3304C39.2857 24.6987 38.9844 25 38.6161 25H14.9554C14.5871 25 14.2857 24.6987 14.2857 24.3304V22.0982ZM10.7143 50H42.567C42.3549 48.0915 42.3549 44.7656 42.567 42.8571H10.7143C8.75 42.8571 7.14286 44.4643 7.14286 46.4286C7.14286 48.404 8.73884 50 10.7143 50Z" fill="white"/>
</svg>
