<?xml version="1.0" encoding="UTF-8"?>
<svg width="825px" height="808px" viewBox="0 0 825 808" version="1.1" xmlns="http://www.w3.org/2000/svg" xmlns:xlink="http://www.w3.org/1999/xlink">
    <!-- Generator: Sketch 52.5 (67469) - http://www.bohemiancoding.com/sketch -->
    <title>illustration</title>
    <desc>Created with Sketch.</desc>
    <defs>
        <circle id="path-1" cx="150" cy="150" r="150"></circle>
        <linearGradient x1="50%" y1="0%" x2="50%" y2="100%" id="linearGradient-3">
            <stop stop-color="#F7B186" offset="0%"></stop>
            <stop stop-color="#FFC299" offset="100%"></stop>
        </linearGradient>
        <linearGradient x1="50%" y1="100%" x2="50%" y2="0%" id="linearGradient-4">
            <stop stop-color="#FFC9B3" offset="0%"></stop>
            <stop stop-color="#FFD2C2" offset="100%"></stop>
        </linearGradient>
        <path d="M225,52.3078325 C231.346819,65.212366 236.346819,86.5456993 240,116.307832 L0,116.307832 C3.65492777,86.5423643 8.65492777,65.209031 15,52.3078325 C19.2161262,43.7353404 40.8827929,31.1990384 80,14.6989264 C80.7789494,7.15648358 82.1122827,2.84472022 84,1.76363636 C86.831576,0.142010581 152.626947,0.142185625 156,1.76363636 C158.248702,2.84460352 159.582035,7.15411391 160,14.6921675 C199.125557,31.2139065 220.792224,43.7524615 225,52.3078325 Z" id="path-5"></path>
    </defs>
    <g id="Book-App-[Screens]" stroke="none" stroke-width="1" fill="none" fill-rule="evenodd">
        <g id="onboarding2" transform="translate(-150.000000, -257.000000)">
            <g id="illustration" transform="translate(150.000000, 258.000000)">
                <path d="M437.45122,806.487805 C651.488501,806.487805 825,632.976306 825,418.939024 C825,204.901743 651.488501,31.3902439 437.45122,31.3902439 C223.413938,31.3902439 49.902439,204.901743 49.902439,418.939024 C49.902439,632.976306 223.413938,806.487805 437.45122,806.487805 Z" id="ico-asset-5" fill-opacity="0.199999988" fill="#E4EAF2"></path>
                <path d="M406.060976,775.097561 C620.098257,775.097561 793.609756,601.586062 793.609756,387.54878 C793.609756,173.511499 620.098257,0 406.060976,0 C192.023694,0 18.5121951,173.511499 18.5121951,387.54878 C18.5121951,601.586062 192.023694,775.097561 406.060976,775.097561 Z" id="ico-asset-5" stroke="#E3E9F2" stroke-width="2" stroke-linecap="round" stroke-linejoin="round" stroke-dasharray="186.5853658536585,24.39024390243902"></path>
                <path d="M436.646341,623.780488 C558.223073,623.780488 656.780488,525.223073 656.780488,403.646341 C656.780488,282.06961 558.223073,183.512195 436.646341,183.512195 C315.06961,183.512195 216.512195,282.06961 216.512195,403.646341 C216.512195,525.223073 315.06961,623.780488 436.646341,623.780488 Z" id="ico-asset-5" fill="#F2F7FA"></path>
                <g id="User-02b" transform="translate(255.294395, 232.829268)">
                    <mask id="mask-2" fill="white">
                        <use xlink:href="#path-1"></use>
                    </mask>
                    <use id="Mask" fill="#F3E8E2" fill-rule="nonzero" xlink:href="#path-1"></use>
                    <path d="M182,176 L182,204 L118,204 C118.080268,176.401073 118.080268,153.463698 118,135.187874 C103.667931,116.611186 103.667931,105 115,93 C122.554712,85 153.221379,79 207,75 C211.034992,113.806634 213.368325,138.473301 214,149 C214.38105,155.350093 218.5,176 202.5,176 C196.502812,176 189.669479,176 182,176 Z" id="Mask" fill="url(#linearGradient-3)" mask="url(#mask-2)"></path>
                    <path d="M182,174 C167.333333,172.333333 155,168.333333 145,162 C149.666667,174.666667 162,183 182,187 L182,174 Z" id="Path-48" fill="#F08956" mask="url(#mask-2)"></path>
                    <path d="M131.020359,105.205381 C127.839974,102.474086 123.97623,100.635504 118.514327,103.473353 C105.564981,110.201466 114.15917,136.134935 128.650337,135.628893 C133.647291,135.454395 131.35786,145.419081 118,152 C118,141.5 102,115.5 100.604607,91.8275293 C84.5,85.8327553 88.5,61.8458045 99.5576217,61.8458045 C97.7890509,39.8542719 133,28.5 146.634032,41.1159694 C160.5,24.5 195.5,33 197.613724,47.414905 C221.680005,34.5671774 237.5,71.5 214.965057,85.8327553 C205.692452,91.730351 184,93.9777865 152.687502,93.9777865 C137.661061,93.9777865 146.302587,129.147918 151,140.5 C157,155 190.5,157 201,155.5 C209.199494,154.328644 213.5,151 214,149 C221.5,169 211.999925,181 197,181 C171.5,181 146,173.5 142,155 C138.816577,140.27667 138.991047,116.515989 131.020359,105.205381 Z" id="Combined-Shape" fill="#A56430" mask="url(#mask-2)"></path>
                    <g id="Group-2" mask="url(#mask-2)">
                        <g transform="translate(30.000000, 191.000000)">
                            <mask id="mask-6" fill="white">
                                <use xlink:href="#path-5"></use>
                            </mask>
                            <use id="Combined-Shape" stroke="none" fill="url(#linearGradient-4)" fill-rule="evenodd" xlink:href="#path-5"></use>
                            <path d="M-16,35 L253,35 L253,43 L-16,43 L-16,35 Z M-16,55 L253,55 L253,63 L-16,63 L-16,55 Z M-16,75 L253,75 L253,83 L-16,83 L-16,75 Z M-16,95 L253,95 L253,103 L-16,103 L-16,95 Z" id="Combined-Shape" stroke="none" fill="#FFA789" fill-rule="nonzero" mask="url(#mask-6)"></path>
                        </g>
                    </g>
                </g>
                <path d="M406.060976,607.682927 C527.637708,607.682927 626.195122,509.125512 626.195122,387.54878 C626.195122,265.972049 527.637708,167.414634 406.060976,167.414634 C284.484244,167.414634 185.926829,265.972049 185.926829,387.54878 C185.926829,509.125512 284.484244,607.682927 406.060976,607.682927 Z" id="ico-asset-5" stroke="#E3E9F2" stroke-width="2.43902439" stroke-linecap="round" stroke-linejoin="round" stroke-dasharray="68.29268292682927,7.317073170731707"></path>
                <path d="M793.005504,209.464489 C772.067916,204.347572 768.768976,201.043885 763.633072,180.092057 C763.205871,178.312053 761.610988,177.073171 759.793011,177.073171 C757.979781,177.073171 756.384898,178.312053 755.957697,180.092057 C750.84078,201.029645 747.55608,204.309598 726.604252,209.445502 C724.824248,209.872703 723.585366,211.467586 723.585366,213.285563 C723.585366,215.098793 724.824248,216.693676 726.604252,217.120877 C747.537094,222.256781 750.821793,225.541481 755.957697,246.493309 C756.384898,248.273313 757.979781,249.512195 759.793011,249.512195 C761.610988,249.512195 763.205871,248.273313 763.633072,246.493309 C768.768976,225.555721 772.067916,222.256781 793.005504,217.120877 C794.785508,216.693676 796.02439,215.098793 796.02439,213.285563 C796.02439,211.467586 794.766521,209.910676 793.005504,209.464489 L793.005504,209.464489 Z" id="ico-asset-2" fill="#E3E9F2"></path>
                <path d="M580.383843,652.409221 C569.682409,649.793908 567.996284,648.105357 565.371267,637.396645 C565.15292,636.486865 564.337757,635.853659 563.408569,635.853659 C562.481807,635.853659 561.666644,636.486865 561.448297,637.396645 C558.832984,648.098079 557.154138,649.774499 546.445425,652.399517 C545.535646,652.617864 544.902439,653.433026 544.902439,654.362215 C544.902439,655.288977 545.535646,656.104139 546.445425,656.322486 C557.144433,658.947504 558.82328,660.62635 561.448297,671.335063 C561.666644,672.244842 562.481807,672.878049 563.408569,672.878049 C564.337757,672.878049 565.15292,672.244842 565.371267,671.335063 C567.996284,660.633629 569.682409,658.947504 580.383843,656.322486 C581.293623,656.104139 581.926829,655.288977 581.926829,654.362215 C581.926829,653.433026 581.283918,652.637272 580.383843,652.409221 L580.383843,652.409221 Z" id="ico-asset-2" fill="#E3E9F2"></path>
                <path d="M188.408233,761.872636 C177.706799,759.257323 176.020674,757.568772 173.395657,746.860059 C173.17731,745.95028 172.362147,745.317073 171.432959,745.317073 C170.506197,745.317073 169.691035,745.95028 169.472687,746.860059 C166.857374,757.561493 165.178528,759.237914 154.469815,761.862931 C153.560036,762.081278 152.926829,762.896441 152.926829,763.825629 C152.926829,764.752391 153.560036,765.567554 154.469815,765.785901 C165.168823,768.410918 166.84767,770.089765 169.472687,780.798477 C169.691035,781.708257 170.506197,782.341463 171.432959,782.341463 C172.362147,782.341463 173.17731,781.708257 173.395657,780.798477 C176.020674,770.097043 177.706799,768.410918 188.408233,765.785901 C189.318013,765.567554 189.95122,764.752391 189.95122,763.825629 C189.95122,762.896441 189.308309,762.100687 188.408233,761.872636 L188.408233,761.872636 Z" id="ico-asset-2" fill="#E3E9F2"></path>
                <path d="M113.554575,413.360441 C102.853141,410.745127 101.167016,409.056577 98.5419985,398.347864 C98.3236514,397.438085 97.5084889,396.804878 96.5793007,396.804878 C95.6525385,396.804878 94.837376,397.438085 94.6190289,398.347864 C92.0037158,409.049298 90.3248692,410.725719 79.6161569,413.350736 C78.7063773,413.569083 78.0731707,414.384246 78.0731707,415.313434 C78.0731707,416.240196 78.7063773,417.055359 79.6161569,417.273706 C90.3151649,419.898723 91.9940115,421.57757 94.6190289,432.286282 C94.837376,433.196062 95.6525385,433.829268 96.5793007,433.829268 C97.5084889,433.829268 98.3236514,433.196062 98.5419985,432.286282 C101.167016,421.584848 102.853141,419.898723 113.554575,417.273706 C114.464354,417.055359 115.097561,416.240196 115.097561,415.313434 C115.097561,414.384246 114.45465,413.588492 113.554575,413.360441 L113.554575,413.360441 Z" id="ico-asset-2" fill="#E3E9F2"></path>
                <path d="M113.688431,180.488879 C92.7508427,175.371962 89.4519027,172.068275 84.3159992,151.116447 C83.8887983,149.336443 82.2939151,148.097561 80.4759382,148.097561 C78.6627079,148.097561 77.0678247,149.336443 76.6406239,151.116447 C71.523707,172.054035 68.2390071,175.333989 47.2871787,180.469892 C45.5071752,180.897093 44.2682927,182.491976 44.2682927,184.309953 C44.2682927,186.123183 45.5071752,187.718067 47.2871787,188.145267 C68.2200204,193.281171 71.5047203,196.565871 76.6406239,217.517699 C77.0678247,219.297703 78.6627079,220.536585 80.4759382,220.536585 C82.2939151,220.536585 83.8887983,219.297703 84.3159992,217.517699 C89.4519027,196.580111 92.7508427,193.281171 113.688431,188.145267 C115.468435,187.718067 116.707317,186.123183 116.707317,184.309953 C116.707317,182.491976 115.449448,180.935066 113.688431,180.488879 L113.688431,180.488879 Z" id="ico-asset-2" fill="#E3E9F2"></path>
                <circle id="ico-asset-3" stroke="#E3E9F2" stroke-width="2.43902439" fill="#FFFFFF" cx="312.292683" cy="584.341463" r="22.9268293"></circle>
                <circle id="ico-asset-3" stroke="#E3E9F2" stroke-width="2.43902439" fill="#FFFFFF" cx="456.365854" cy="172.243902" r="22.9268293"></circle>
                <circle id="ico-asset-3" stroke="#E3E9F2" stroke-width="2.43902439" fill="#FFFFFF" cx="730.829268" cy="54.7317073" r="22.9268293"></circle>
                <circle id="ico-asset-3" stroke="#E3E9F2" stroke-width="2.43902439" fill="#FFFFFF" cx="24.1463415" cy="330" r="22.9268293"></circle>
                <circle id="ico-asset-3" stroke="#E3E9F2" stroke-width="2.43902439" fill="#FFFFFF" cx="729.219512" cy="603.658537" r="22.9268293"></circle>
                <path d="M688.573171,527.600157 C688.000273,527.600157 687.427375,527.405524 686.94996,527.021614 C668.804657,512.30448 660.517088,498.556941 656.766728,489.60738 C655.75178,487.375347 654.956088,485.032605 654.425627,482.647008 C654.273562,482.004182 654.202833,481.607773 654.183383,481.468494 C653.767855,479.27753 653.560976,477.045497 653.560976,474.820607 C653.560976,455.325136 669.267926,439.463415 688.573171,439.463415 C707.878415,439.463415 723.585366,455.325136 723.585366,474.820607 C723.585366,477.045497 723.378486,479.27753 722.962958,481.461352 C722.943508,481.586346 722.87278,481.98454 722.720714,482.647008 C722.183181,485.039747 721.401635,487.38249 720.379613,489.60738 C716.622181,498.564083 708.334612,512.30448 690.196381,527.021614 C689.718967,527.405524 689.146069,527.600157 688.573171,527.600157 L688.573171,527.600157 Z M659.300564,480.65782 C659.314709,480.734602 659.362451,481.007803 659.466775,481.447067 C659.466775,481.454209 659.473848,481.468494 659.473848,481.473851 C659.930044,483.525536 660.607266,485.534366 661.484295,487.444986 C661.498441,487.473556 661.503745,487.494984 661.517891,487.521768 C664.923451,495.648155 672.376428,508.063617 688.573171,521.595095 C704.769914,508.056474 712.222891,495.648155 715.628451,487.521768 C715.642596,487.494984 715.647901,487.466414 715.662047,487.444986 C716.539075,485.534366 717.216297,483.525536 717.672494,481.473851 C717.672494,481.468494 717.679567,481.454209 717.679567,481.447067 C717.776818,481.027445 717.831632,480.756029 717.845778,480.664962 C717.85285,480.623893 717.858155,480.581038 717.865228,480.539968 C718.225941,478.656132 718.40453,476.731227 718.40453,474.820607 C718.40453,458.212494 705.026303,444.695301 688.573171,444.695301 C672.127111,444.695301 658.741812,458.205351 658.741812,474.813464 C658.741812,476.731227 658.9204,478.656132 659.281114,480.532826 C659.288186,480.575681 659.293491,480.61675 659.300564,480.65782 L659.300564,480.65782 Z M688.98693,495.830289 C677.224841,495.830289 667.651788,486.161121 667.651788,474.283133 C667.651788,462.405145 677.224841,452.737763 688.98693,452.737763 C693.262446,452.737763 697.385896,454.007343 700.91523,456.419725 C702.103463,457.228613 702.414667,458.853534 701.613671,460.053475 C700.812675,461.253416 699.203609,461.567686 698.015377,460.758797 C695.348926,458.937458 692.226279,457.975005 688.98693,457.975005 C680.084026,457.975005 672.839697,465.292503 672.839697,474.283133 C672.839697,483.273763 680.084026,490.591261 688.98693,490.591261 C697.891603,490.591261 705.135932,483.273763 705.135932,474.283133 C705.135932,472.065385 704.700954,469.917276 703.852216,467.894161 C703.291696,466.562084 703.899958,465.02823 705.219037,464.462187 C706.538117,463.897929 708.058772,464.510399 708.617524,465.844262 C709.74387,468.515559 710.316768,471.360062 710.316768,474.290275 C710.323841,486.168263 700.750787,495.830289 688.98693,495.830289 L688.98693,495.830289 Z M719.882748,531.235693 C719.882748,528.346549 717.997843,524.266392 709.004761,521.268325 C707.643244,520.814776 706.179172,521.561168 705.730048,522.927172 C705.280924,524.302105 706.020033,525.780604 707.374477,526.234153 C712.403248,527.914427 714.694839,530.000039 714.694839,531.22855 C714.694839,533.815923 705.475427,538.85139 688.573171,538.85139 C671.670915,538.85139 662.451502,533.815923 662.451502,531.22855 C662.451502,530.035752 664.654684,527.991209 669.488952,526.332362 C670.843395,525.864528 671.568359,524.378887 671.10509,523.011097 C670.64182,521.645092 669.170675,520.9112 667.817999,521.379034 C659.100757,524.378887 657.270666,528.396546 657.270666,531.235693 C657.270666,539.681706 673.018286,544.097561 688.580244,544.097561 C704.135129,544.097561 719.882748,539.681706 719.882748,531.235693 L719.882748,531.235693 Z" id="ico-asset-1" fill="#9DABC0"></path>
                <path d="M351.9134,64.1631534 L293.371362,87.0369402 C292.76185,87.2757664 292.280005,87.7616542 292.037024,88.3710728 L269.15971,146.904084 C268.822007,147.772918 269.032042,148.752929 269.674501,149.411759 C270.127517,149.864706 270.73703,150.120003 271.350661,150.120003 C271.62247,150.120003 271.910753,150.07059 272.170208,149.975883 L331.449426,127.843282 C332.096004,127.600338 332.594321,127.102097 332.833184,126.459737 L354.969199,67.1896581 C355.294547,66.3208248 355.084512,65.336696 354.42558,64.6778651 C353.762529,64.0190342 352.765893,63.8255026 351.9134,64.1631534 L351.9134,64.1631534 Z M275.468989,143.704636 L296.060631,91.0393381 L297.123159,90.6234511 L329.200819,122.712636 L328.797223,123.791471 L275.468989,143.704636 Z" id="ico-asset-4" fill="#9DABC0"></path>
                <path d="M181.097561,519.221246 C181.097561,532.53319 176.279454,543.890323 166.644548,553.288748 C157.009643,562.722266 145.471061,567.439024 132.026185,567.439024 C118.585237,567.439024 107.05713,562.80285 97.4575746,553.542197 C87.7558966,544.20616 82.902439,532.88412 82.902439,519.572176 C82.902439,506.258932 87.7558966,494.922594 97.4575746,485.555364 C107.05713,476.289513 118.585237,471.658537 132.026185,471.658537 C145.465824,471.658537 156.972983,476.223226 166.542425,485.356503 C176.244103,494.622354 181.097561,505.909302 181.097561,519.221246 L181.097561,519.221246 Z M176.305639,518.947001 C176.305639,507.127159 171.906498,496.99828 163.11607,488.560364 C154.391106,480.21343 144.054433,476.045161 132.117834,476.039962 L127.304964,485.833508 L132.552511,486.884998 L136.643975,482.823309 L143.864589,483.300314 L145.307403,487.124151 L140.975034,491.423693 L140.975034,494.003678 L143.670818,494.526174 L144.923787,492.520674 L149.690833,489.561164 L149.546814,491.566664 L151.327419,494.622354 L149.210332,496.821516 L150.55495,498.110858 L147.378665,498.30322 L148.67746,500.883205 L141.793327,504.132557 L142.852525,508.000585 L140.684377,508.000585 L139.722064,504.178048 L134.669598,504.081867 L133.75442,505.563571 L131.683157,504.609561 L128.3131,507.955094 L131.007575,511.158955 L130.910689,514.692949 L133.749182,516.79463 L150.303571,518.657158 L155.551118,522.338024 L154.927906,531.467402 L143.528107,542.789443 C142.790989,543.525096 142.065655,545.56179 141.35865,548.907322 C140.684377,552.060493 140.443471,554.303845 140.638552,555.643878 L138.903772,557.603887 C137.553916,554.958915 135.804734,550.897225 133.657534,545.418818 C133.14561,543.540693 132.695221,541.14917 132.311606,538.250749 C132.026185,535.864425 131.734219,533.457305 131.447489,531.035888 L124.225565,524.729547 L130.629196,517.231343 L127.980546,513.452997 C123.903485,512.626362 121.254835,511.894608 120.037216,511.255135 C118.820905,510.584469 116.71822,508.757034 113.73178,505.762431 L116.232482,510.584469 L114.550072,511.300626 L110.65238,504.035076 L111.424849,497.253029 L110.22294,492.475183 L106.469268,488.845007 L103.72766,488.174341 L101.318607,489.844508 L98.6751941,490.515174 C91.3825698,498.867307 87.7454224,508.452895 87.7454224,519.282334 C87.7454224,531.385519 92.1079044,541.662568 100.838105,550.100484 C109.466183,558.447419 119.894505,562.615687 132.123071,562.620886 C144.3464,562.620886 154.759011,558.365535 163.360903,549.861332 C171.988981,541.357129 176.300402,531.055384 176.305639,518.947001 L176.305639,518.947001 Z" id="ico-asset-7" fill="#9DABC0"></path>
            </g>
        </g>
    </g>
</svg>