<svg width="301" height="301" viewBox="0 0 301 301" fill="none" xmlns="http://www.w3.org/2000/svg">
<path d="M150.294 300.829C233.137 300.829 300.294 233.672 300.294 150.829C300.294 67.9864 233.137 0.829102 150.294 0.829102C67.4517 0.829102 0.294434 67.9864 0.294434 150.829C0.294434 233.672 67.4517 300.829 150.294 300.829Z" fill="#F3E8E2"/>
<mask id="mask0" mask-type="alpha" maskUnits="userSpaceOnUse" x="0" y="0" width="301" height="301">
<path d="M150.294 300.829C233.137 300.829 300.294 233.672 300.294 150.829C300.294 67.9864 233.137 0.829102 150.294 0.829102C67.4517 0.829102 0.294434 67.9864 0.294434 150.829C0.294434 233.672 67.4517 300.829 150.294 300.829Z" fill="white"/>
</mask>
<g mask="url(#mask0)">
<path fill-rule="evenodd" clip-rule="evenodd" d="M182.294 176.829V204.829H118.294C118.294 204.829 118.415 163.431 118.294 136.017C103.962 117.44 103.962 105.829 115.294 93.8291C126.626 81.8291 207.294 75.8291 207.294 75.8291C207.294 75.8291 213.347 134.039 214.294 149.829C214.675 156.179 218.794 176.829 202.794 176.829C193.798 176.829 182.294 176.829 182.294 176.829Z" fill="url(#paint0_linear)"/>
<path fill-rule="evenodd" clip-rule="evenodd" d="M182.294 174.829C160.294 172.329 145.294 162.829 145.294 162.829C145.294 162.829 152.294 181.829 182.294 187.829V174.829Z" fill="#F08956"/>
<path fill-rule="evenodd" clip-rule="evenodd" d="M131.315 106.034C128.134 103.303 124.27 101.465 118.809 104.302C105.859 111.031 114.453 136.964 128.945 136.458C133.942 136.283 131.652 146.248 118.294 152.829C118.294 142.329 102.294 116.329 100.899 92.6566C84.7942 86.6618 88.7942 62.6749 99.8519 62.6749C98.0833 40.6834 133.294 29.3291 146.928 41.9451C160.794 25.3291 195.794 33.8291 197.908 48.244C221.974 35.3963 237.794 72.3291 215.259 86.6618C205.987 92.5594 184.294 94.8069 152.982 94.8069C137.955 94.8069 146.597 129.977 151.294 141.329C157.294 155.829 190.794 157.829 201.294 156.329C209.494 155.158 213.794 151.829 214.294 149.829C221.794 169.829 212.294 181.829 197.294 181.829C171.794 181.829 146.294 174.329 142.294 155.829C139.111 141.106 139.285 117.345 131.315 106.034Z" fill="#A56430"/>
<path fill-rule="evenodd" clip-rule="evenodd" d="M255.294 244.137C261.641 257.041 266.641 278.375 270.294 308.137H30.2944C33.9494 278.371 38.9494 257.038 45.2944 244.137C51.6186 231.278 110.294 206.528 110.294 206.528C110.294 206.528 111.463 195.214 114.294 193.593C117.126 191.971 182.921 191.971 186.294 193.593C189.667 195.214 190.294 206.521 190.294 206.521C190.294 206.521 248.983 231.304 255.294 244.137Z" fill="url(#paint1_linear)"/>
<mask id="mask1" mask-type="alpha" maskUnits="userSpaceOnUse" x="30" y="192" width="241" height="117">
<path fill-rule="evenodd" clip-rule="evenodd" d="M255.294 244.137C261.641 257.041 266.641 278.375 270.294 308.137H30.2944C33.9494 278.371 38.9494 257.038 45.2944 244.137C51.6186 231.278 110.294 206.528 110.294 206.528C110.294 206.528 111.463 195.214 114.294 193.593C117.126 191.971 182.921 191.971 186.294 193.593C189.667 195.214 190.294 206.521 190.294 206.521C190.294 206.521 248.983 231.304 255.294 244.137Z" fill="white"/>
</mask>
<g mask="url(#mask1)">
<path fill-rule="evenodd" clip-rule="evenodd" d="M283.294 226.829H14.2944V234.829H283.294V226.829ZM283.294 246.829H14.2944V254.829H283.294V246.829ZM14.2944 266.829H283.294V274.829H14.2944V266.829ZM283.294 286.829H14.2944V294.829H283.294V286.829Z" fill="#FFA789"/>
</g>
</g>
<defs>
<linearGradient id="paint0_linear" x1="107.137" y1="75.8291" x2="107.137" y2="204.829" gradientUnits="userSpaceOnUse">
<stop stop-color="#F7B186"/>
<stop offset="1" stop-color="#FFC299"/>
</linearGradient>
<linearGradient id="paint1_linear" x1="270.294" y1="308.137" x2="270.294" y2="192.376" gradientUnits="userSpaceOnUse">
<stop stop-color="#FFC9B3"/>
<stop offset="1" stop-color="#FFD2C2"/>
</linearGradient>
</defs>
</svg>
