<svg width="50" height="50" viewBox="0 0 50 50" fill="none" xmlns="http://www.w3.org/2000/svg">
<path fill-rule="evenodd" clip-rule="evenodd" d="M25 50C38.8071 50 50 38.8071 50 25C50 11.1929 38.8071 0 25 0C11.1929 0 0 11.1929 0 25C0 38.8071 11.1929 50 25 50Z" fill="#3B7CEC"/>
<path fill-rule="evenodd" clip-rule="evenodd" d="M24.1589 13.8324L21.1075 20.0193L14.2804 21.0146C13.0561 21.1922 12.5654 22.7015 13.4533 23.566L18.3925 28.3791L17.2243 35.1781C17.014 36.4071 18.3084 37.3277 19.3925 36.7529L25.5 33.5426L31.6075 36.7529C32.6916 37.323 33.986 36.4071 33.7757 35.1781L32.6075 28.3791L37.5467 23.566C38.4346 22.7015 37.9439 21.1922 36.7196 21.0146L29.8925 20.0193L26.8411 13.8324C26.2944 12.7296 24.7103 12.7155 24.1589 13.8324Z" fill="white"/>
<mask id="mask0" mask-type="alpha" maskUnits="userSpaceOnUse" x="13" y="13" width="25" height="24">
<path fill-rule="evenodd" clip-rule="evenodd" d="M24.1589 13.8324L21.1075 20.0193L14.2804 21.0146C13.0561 21.1922 12.5654 22.7015 13.4533 23.566L18.3925 28.3791L17.2243 35.1781C17.014 36.4071 18.3084 37.3277 19.3925 36.7529L25.5 33.5426L31.6075 36.7529C32.6916 37.323 33.986 36.4071 33.7757 35.1781L32.6075 28.3791L37.5467 23.566C38.4346 22.7015 37.9439 21.1922 36.7196 21.0146L29.8925 20.0193L26.8411 13.8324C26.2944 12.7296 24.7103 12.7155 24.1589 13.8324Z" fill="white"/>
</mask>
<g mask="url(#mask0)">
</g>
</svg>
