<svg width="50" height="50" viewBox="0 0 50 50" fill="none" xmlns="http://www.w3.org/2000/svg">
<path fill-rule="evenodd" clip-rule="evenodd" d="M25 50C38.8071 50 50 38.8071 50 25C50 11.1929 38.8071 0 25 0C11.1929 0 0 11.1929 0 25C0 38.8071 11.1929 50 25 50Z" fill="#3B7CEC"/>
<path fill-rule="evenodd" clip-rule="evenodd" d="M32.5312 20.0312C32.5312 23.9131 29.3818 27.0625 25.5 27.0625C21.6182 27.0625 18.4688 23.9131 18.4688 20.0312C18.4688 16.1494 21.6182 13 25.5 13C29.3818 13 32.5312 16.1494 32.5312 20.0312ZM29.0596 28.625H31.75C35.2021 28.625 38 31.4229 38 34.875V35.6562C38 36.9502 36.9502 38 35.6562 38H15.3438C14.0498 38 13 36.9502 13 35.6562V34.875C13 31.4229 15.7979 28.625 19.25 28.625H21.9404C23.0293 29.123 24.2305 29.4062 25.5 29.4062C26.7695 29.4062 27.9756 29.123 29.0596 28.625Z" fill="white"/>
<mask id="mask0" mask-type="alpha" maskUnits="userSpaceOnUse" x="13" y="13" width="25" height="25">
<path fill-rule="evenodd" clip-rule="evenodd" d="M32.5312 20.0312C32.5312 23.9131 29.3818 27.0625 25.5 27.0625C21.6182 27.0625 18.4688 23.9131 18.4688 20.0312C18.4688 16.1494 21.6182 13 25.5 13C29.3818 13 32.5312 16.1494 32.5312 20.0312ZM29.0596 28.625H31.75C35.2021 28.625 38 31.4229 38 34.875V35.6562C38 36.9502 36.9502 38 35.6562 38H15.3438C14.0498 38 13 36.9502 13 35.6562V34.875C13 31.4229 15.7979 28.625 19.25 28.625H21.9404C23.0293 29.123 24.2305 29.4062 25.5 29.4062C26.7695 29.4062 27.9756 29.123 29.0596 28.625Z" fill="white"/>
</mask>
<g mask="url(#mask0)">
</g>
</svg>
