<svg width="50" height="44" viewBox="0 0 50 44" fill="none" xmlns="http://www.w3.org/2000/svg">
<path fill-rule="evenodd" clip-rule="evenodd" d="M7.8125 9.375H45.0391C47.7754 9.375 50 11.4775 50 14.0625V39.0625C50 41.6475 47.7754 43.75 45.0391 43.75H6.25C2.79785 43.75 0 40.9521 0 37.5V6.25C0 2.79785 2.79785 0 6.25 0H42.1875C44.7764 0 46.875 2.09863 46.875 4.6875C46.875 5.55078 46.1758 6.25 45.3125 6.25H7.8125C6.94922 6.25 6.25 6.94922 6.25 7.8125C6.25 8.67578 6.94922 9.375 7.8125 9.375ZM37.5 26.5625C37.5 28.2881 38.8994 29.6875 40.625 29.6875C42.3506 29.6875 43.75 28.2881 43.75 26.5625C43.75 24.8369 42.3506 23.4375 40.625 23.4375C38.8994 23.4375 37.5 24.8369 37.5 26.5625Z" fill="white"/>
</svg>
