<svg width="71" height="70" viewBox="0 0 71 70" fill="none" xmlns="http://www.w3.org/2000/svg">
<mask id="mask0" mask-type="alpha" maskUnits="userSpaceOnUse" x="5" y="5" width="61" height="60">
<path fill-rule="evenodd" clip-rule="evenodd" d="M59.1665 5.8335H23.6665C20.4123 5.8335 17.7498 8.4585 17.7498 11.6668V46.6668C17.7498 49.8752 20.4123 52.5002 23.6665 52.5002H59.1665C62.4207 52.5002 65.0832 49.8752 65.0832 46.6668V11.6668C65.0832 8.4585 62.4207 5.8335 59.1665 5.8335ZM11.8332 17.5002H5.9165V58.3335C5.9165 61.5418 8.579 64.1668 11.8332 64.1668H53.2498V58.3335H11.8332V17.5002ZM26.6248 32.0835H56.2082V26.2502H26.6248V32.0835ZM44.3748 43.7502H26.6248V37.9168H44.3748V43.7502ZM26.6248 20.4168H56.2082V14.5835H26.6248V20.4168Z" fill="white"/>
</mask>
<g mask="url(#mask0)">
<rect width="71" height="70" fill="#AFAFAF"/>
</g>
</svg>
